<svg width="70" height="34" viewBox="0 0 70 34" fill="none" xmlns="http://www.w3.org/2000/svg">
<path d="M15.058 29H14.428L11.872 23.852H4.708L2.206 29H1.576L8.308 15.176L15.058 29ZM11.656 23.33L8.272 16.472L4.96 23.33H11.656ZM20.4168 29.198C19.6488 29.198 18.9348 29.006 18.2748 28.622C17.6148 28.238 17.0928 27.722 16.7088 27.074C16.3248 26.414 16.1328 25.706 16.1328 24.95C16.1328 24.194 16.3248 23.492 16.7088 22.844C17.0928 22.184 17.6148 21.662 18.2748 21.278C18.9348 20.894 19.6488 20.702 20.4168 20.702C21.1968 20.702 21.9348 20.912 22.6308 21.332C23.3268 21.74 23.8128 22.274 24.0888 22.934V20.9H24.6648V29H24.0888V26.984C23.7648 27.656 23.2608 28.196 22.5768 28.604C21.9048 29 21.1848 29.198 20.4168 29.198ZM20.4528 28.694C21.1128 28.694 21.7248 28.526 22.2888 28.19C22.8528 27.842 23.2968 27.386 23.6208 26.822C23.9568 26.246 24.1248 25.622 24.1248 24.95C24.1248 24.29 23.9568 23.672 23.6208 23.096C23.2848 22.52 22.8348 22.064 22.2708 21.728C21.7068 21.38 21.0948 21.206 20.4348 21.206C19.7748 21.206 19.1568 21.38 18.5808 21.728C18.0168 22.076 17.5608 22.538 17.2128 23.114C16.8768 23.69 16.7088 24.308 16.7088 24.968C16.7088 25.628 16.8768 26.246 17.2128 26.822C17.5608 27.386 18.0228 27.842 18.5988 28.19C19.1748 28.526 19.7928 28.694 20.4528 28.694ZM30.0147 18.02C29.5587 18.02 29.1387 18.134 28.7547 18.362C28.3707 18.578 28.0647 18.884 27.8367 19.28C27.6207 19.664 27.5127 20.09 27.5127 20.558V20.9H30.0147V21.404H27.5127V29H26.9367V20.558C26.9367 19.994 27.0687 19.484 27.3327 19.028C27.6087 18.56 27.9807 18.194 28.4487 17.93C28.9287 17.654 29.4507 17.516 30.0147 17.516V18.02ZM35.3582 29.198C34.5902 29.198 33.8762 29.006 33.2162 28.622C32.5562 28.238 32.0342 27.722 31.6502 27.074C31.2662 26.414 31.0742 25.706 31.0742 24.95C31.0742 24.194 31.2662 23.492 31.6502 22.844C32.0342 22.184 32.5562 21.662 33.2162 21.278C33.8762 20.894 34.5902 20.702 35.3582 20.702C36.1382 20.702 36.8762 20.912 37.5722 21.332C38.2682 21.74 38.7542 22.274 39.0302 22.934V20.9H39.6062V29H39.0302V26.984C38.7062 27.656 38.2022 28.196 37.5182 28.604C36.8462 29 36.1262 29.198 35.3582 29.198ZM35.3942 28.694C36.0542 28.694 36.6662 28.526 37.2302 28.19C37.7942 27.842 38.2382 27.386 38.5622 26.822C38.8982 26.246 39.0662 25.622 39.0662 24.95C39.0662 24.29 38.8982 23.672 38.5622 23.096C38.2262 22.52 37.7762 22.064 37.2122 21.728C36.6482 21.38 36.0362 21.206 35.3762 21.206C34.7162 21.206 34.0982 21.38 33.5222 21.728C32.9582 22.076 32.5022 22.538 32.1542 23.114C31.8182 23.69 31.6502 24.308 31.6502 24.968C31.6502 25.628 31.8182 26.246 32.1542 26.822C32.5022 27.386 32.9642 27.842 33.5402 28.19C34.1162 28.526 34.7342 28.694 35.3942 28.694ZM49.3661 26.984C49.0421 27.656 48.5381 28.196 47.8541 28.604C47.1821 29 46.4621 29.198 45.6941 29.198C44.9261 29.198 44.2121 29.006 43.5521 28.622C42.8921 28.238 42.3701 27.722 41.9861 27.074C41.6021 26.414 41.4101 25.706 41.4101 24.95C41.4101 24.194 41.6021 23.492 41.9861 22.844C42.3701 22.184 42.8921 21.662 43.5521 21.278C44.2121 20.894 44.9261 20.702 45.6941 20.702C46.4741 20.702 47.2121 20.912 47.9081 21.332C48.6041 21.74 49.0901 22.274 49.3661 22.934V20.9H49.9421V32.6H49.3661V26.984ZM45.7301 28.694C46.3901 28.694 47.0021 28.526 47.5661 28.19C48.1301 27.842 48.5741 27.386 48.8981 26.822C49.2341 26.246 49.4021 25.622 49.4021 24.95C49.4021 24.29 49.2341 23.672 48.8981 23.096C48.5621 22.52 48.1121 22.064 47.5481 21.728C46.9841 21.38 46.3721 21.206 45.7121 21.206C45.0521 21.206 44.4341 21.38 43.8581 21.728C43.2941 22.076 42.8381 22.538 42.4901 23.114C42.1541 23.69 41.9861 24.308 41.9861 24.968C41.9861 25.628 42.1541 26.246 42.4901 26.822C42.8381 27.386 43.3001 27.842 43.8761 28.19C44.4521 28.526 45.0701 28.694 45.7301 28.694ZM55.7781 29.198C54.6381 29.198 53.7561 28.886 53.1321 28.262C52.5201 27.638 52.2141 26.756 52.2141 25.616V20.9H52.7901V25.616C52.7901 26.6 53.0481 27.362 53.5641 27.902C54.0921 28.43 54.8301 28.694 55.7781 28.694C56.3541 28.694 56.8821 28.568 57.3621 28.316C57.8421 28.052 58.2201 27.686 58.4961 27.218C58.7721 26.75 58.9101 26.216 58.9101 25.616V20.9H59.4861V29H58.9101V27.488C58.6341 27.992 58.2201 28.406 57.6681 28.73C57.1161 29.042 56.4861 29.198 55.7781 29.198ZM65.701 28.712C66.325 28.712 66.919 28.55 67.483 28.226C68.047 27.902 68.515 27.458 68.887 26.894V27.812C68.443 28.304 67.957 28.664 67.429 28.892C66.901 29.108 66.301 29.216 65.629 29.216C64.885 29.216 64.183 29.018 63.523 28.622C62.875 28.226 62.353 27.698 61.957 27.038C61.573 26.378 61.381 25.676 61.381 24.932C61.381 24.128 61.573 23.408 61.957 22.772C62.341 22.124 62.863 21.62 63.523 21.26C64.195 20.9 64.939 20.72 65.755 20.72C67.003 20.72 68.065 21.212 68.941 22.196L63.289 27.776C63.685 28.1 64.069 28.34 64.441 28.496C64.813 28.64 65.233 28.712 65.701 28.712ZM61.957 24.878C61.957 25.874 62.287 26.726 62.947 27.434L68.221 22.196C67.825 21.848 67.441 21.602 67.069 21.458C66.697 21.302 66.253 21.224 65.737 21.224C65.005 21.224 64.351 21.386 63.775 21.71C63.211 22.022 62.767 22.454 62.443 23.006C62.119 23.558 61.957 24.182 61.957 24.878Z" fill="url(#paint0_linear)"/>
<path d="M15.058 29V29.5H15.8586L15.5073 28.7806L15.058 29ZM14.428 29L13.9802 29.2224L14.118 29.5H14.428V29ZM11.872 23.852L12.3198 23.6296L12.182 23.352H11.872V23.852ZM4.708 23.852V23.352H4.39508L4.2583 23.6334L4.708 23.852ZM2.206 29V29.5H2.51892L2.6557 29.2186L2.206 29ZM1.576 29L1.12647 28.7811L0.776374 29.5H1.576V29ZM8.308 15.176L8.7573 14.9566L8.3074 14.0352L7.85847 14.9571L8.308 15.176ZM11.656 23.33V23.83H12.4603L12.1044 23.1087L11.656 23.33ZM8.272 16.472L8.72038 16.2507L8.26717 15.3323L7.82176 16.2546L8.272 16.472ZM4.96 23.33L4.50976 23.1126L4.16328 23.83H4.96V23.33ZM15.058 28.5H14.428V29.5H15.058V28.5ZM14.8758 28.7776L12.3198 23.6296L11.4242 24.0744L13.9802 29.2224L14.8758 28.7776ZM11.872 23.352H4.708V24.352H11.872V23.352ZM4.2583 23.6334L1.7563 28.7814L2.6557 29.2186L5.1577 24.0706L4.2583 23.6334ZM2.206 28.5H1.576V29.5H2.206V28.5ZM2.02553 29.2189L8.75753 15.3949L7.85847 14.9571L1.12647 28.7811L2.02553 29.2189ZM7.8587 15.3954L14.6087 29.2194L15.5073 28.7806L8.7573 14.9566L7.8587 15.3954ZM12.1044 23.1087L8.72038 16.2507L7.82362 16.6932L11.2076 23.5512L12.1044 23.1087ZM7.82176 16.2546L4.50976 23.1126L5.41024 23.5474L8.72224 16.6894L7.82176 16.2546ZM4.96 23.83H11.656V22.83H4.96V23.83ZM18.2748 28.622L18.0234 29.0542L18.0234 29.0542L18.2748 28.622ZM16.7088 27.074L16.2766 27.3255L16.2787 27.3289L16.7088 27.074ZM16.7088 22.844L17.139 23.0989L17.141 23.0954L16.7088 22.844ZM18.2748 21.278L18.0234 20.8458L18.0234 20.8458L18.2748 21.278ZM22.6308 21.332L22.3724 21.7601L22.3779 21.7633L22.6308 21.332ZM24.0888 22.934L23.6275 23.1269L24.5888 22.934H24.0888ZM24.0888 20.9V20.4H23.5888V20.9H24.0888ZM24.6648 20.9H25.1648V20.4H24.6648V20.9ZM24.6648 29V29.5H25.1648V29H24.6648ZM24.0888 29H23.5888V29.5H24.0888V29ZM24.0888 26.984H24.5888L23.6384 26.7669L24.0888 26.984ZM22.5768 28.604L22.8306 29.0348L22.8329 29.0334L22.5768 28.604ZM22.2888 28.19L22.5447 28.6196L22.5514 28.6155L22.2888 28.19ZM23.6208 26.822L23.1889 26.5701L23.1872 26.5729L23.6208 26.822ZM23.6208 23.096L23.1889 23.3479L23.1889 23.3479L23.6208 23.096ZM22.2708 21.728L22.0082 22.1536L22.0149 22.1576L22.2708 21.728ZM18.5808 21.728L18.3222 21.3L18.3182 21.3025L18.5808 21.728ZM17.2128 23.114L16.7848 22.8554L16.7809 22.8621L17.2128 23.114ZM17.2128 26.822L16.7808 27.074L16.7873 27.0846L17.2128 26.822ZM18.5988 28.19L18.3402 28.618L18.3469 28.6219L18.5988 28.19ZM20.4168 28.698C19.7366 28.698 19.1094 28.5291 18.5262 28.1898L18.0234 29.0542C18.7602 29.4829 19.561 29.698 20.4168 29.698V28.698ZM18.5262 28.1898C17.9389 27.8481 17.4788 27.3927 17.1389 26.8191L16.2787 27.3289C16.7067 28.0513 17.2907 28.6279 18.0234 29.0542L18.5262 28.1898ZM17.141 26.8226C16.8009 26.2381 16.6328 25.6167 16.6328 24.95H15.6328C15.6328 25.7953 15.8487 26.5899 16.2766 27.3254L17.141 26.8226ZM16.6328 24.95C16.6328 24.2833 16.8008 23.6694 17.1389 23.0989L16.2787 22.5891C15.8487 23.3146 15.6328 24.1047 15.6328 24.95H16.6328ZM17.141 23.0954C17.4814 22.5103 17.9411 22.0506 18.5262 21.7102L18.0234 20.8458C17.2885 21.2734 16.7042 21.8577 16.2766 22.5926L17.141 23.0954ZM18.5262 21.7102C19.1094 21.3709 19.7366 21.202 20.4168 21.202V20.202C19.561 20.202 18.7602 20.4171 18.0234 20.8458L18.5262 21.7102ZM20.4168 21.202C21.1018 21.202 21.751 21.3851 22.3725 21.7601L22.8891 20.9039C22.1186 20.4389 21.2918 20.202 20.4168 20.202V21.202ZM22.3779 21.7633C22.993 22.1239 23.3986 22.5795 23.6275 23.1269L24.5501 22.7411C24.227 21.9685 23.6606 21.3561 22.8837 20.9007L22.3779 21.7633ZM24.5888 22.934V20.9H23.5888V22.934H24.5888ZM24.0888 21.4H24.6648V20.4H24.0888V21.4ZM24.1648 20.9V29H25.1648V20.9H24.1648ZM24.6648 28.5H24.0888V29.5H24.6648V28.5ZM24.5888 29V26.984H23.5888V29H24.5888ZM23.6384 26.7669C23.3599 27.3445 22.9265 27.8132 22.3207 28.1746L22.8329 29.0334C23.5951 28.5788 24.1697 27.9675 24.5392 27.2011L23.6384 26.7669ZM22.323 28.1732C21.7266 28.5246 21.0941 28.698 20.4168 28.698V29.698C21.2755 29.698 22.083 29.4754 22.8306 29.0348L22.323 28.1732ZM20.4528 29.194C21.2024 29.194 21.9029 29.0019 22.5447 28.6196L22.0329 27.7604C21.5467 28.0501 21.0232 28.194 20.4528 28.194V29.194ZM22.5514 28.6155C23.1847 28.2247 23.6881 27.7086 24.0543 27.0711L23.1872 26.5729C22.9055 27.0634 22.5208 27.4593 22.0262 27.7645L22.5514 28.6155ZM24.0527 27.0739C24.4337 26.4208 24.6248 25.7098 24.6248 24.95H23.6248C23.6248 25.5342 23.4799 26.0712 23.1889 26.5701L24.0527 27.0739ZM24.6248 24.95C24.6248 24.2005 24.4328 23.4957 24.0527 22.8441L23.1889 23.3479C23.4808 23.8483 23.6248 24.3795 23.6248 24.95H24.6248ZM24.0527 22.8441C23.6747 22.1961 23.1646 21.6785 22.5267 21.2984L22.0149 22.1576C22.5049 22.4495 22.8949 22.8439 23.1889 23.3479L24.0527 22.8441ZM22.5334 21.3025C21.8908 20.906 21.1879 20.706 20.4348 20.706V21.706C21.0017 21.706 21.5228 21.854 22.0082 22.1535L22.5334 21.3025ZM20.4348 20.706C19.6818 20.706 18.9746 20.9059 18.3222 21.3L18.8394 22.156C19.339 21.8541 19.8678 21.706 20.4348 21.706V20.706ZM18.3182 21.3025C17.6855 21.6929 17.1733 22.2125 16.7848 22.8554L17.6408 23.3726C17.9483 22.8635 18.348 22.4591 18.8434 22.1535L18.3182 21.3025ZM16.7809 22.8621C16.4008 23.5137 16.2088 24.2185 16.2088 24.968H17.2088C17.2088 24.3975 17.3528 23.8663 17.6447 23.3659L16.7809 22.8621ZM16.2088 24.968C16.2088 25.7175 16.4008 26.4223 16.7809 27.0739L17.6447 26.5701C17.3528 26.0697 17.2088 25.5385 17.2088 24.968H16.2088ZM16.7873 27.0846C17.1777 27.7172 17.6973 28.2295 18.3402 28.618L18.8574 27.762C18.3483 27.4545 17.9439 27.0548 17.6383 26.5594L16.7873 27.0846ZM18.3469 28.6219C18.9985 29.002 19.7033 29.194 20.4528 29.194V28.194C19.8823 28.194 19.3511 28.05 18.8507 27.7581L18.3469 28.6219ZM30.0147 18.02V18.52H30.5147V18.02H30.0147ZM28.7547 18.362L28.9999 18.7979L29.01 18.7919L28.7547 18.362ZM27.8367 19.28L27.4034 19.0305L27.4009 19.0349L27.8367 19.28ZM27.5127 20.9H27.0127V21.4H27.5127V20.9ZM30.0147 20.9H30.5147V20.4H30.0147V20.9ZM30.0147 21.404V21.904H30.5147V21.404H30.0147ZM27.5127 21.404V20.904H27.0127V21.404H27.5127ZM27.5127 29V29.5H28.0127V29H27.5127ZM26.9367 29H26.4367V29.5H26.9367V29ZM27.3327 19.028L26.902 18.774L26.9 18.7775L27.3327 19.028ZM28.4487 17.93L28.6944 18.3655L28.698 18.3635L28.4487 17.93ZM30.0147 17.516H30.5147V17.016H30.0147V17.516ZM30.0147 17.52C29.4709 17.52 28.9624 17.6572 28.4995 17.9321L29.01 18.7919C29.3151 18.6108 29.6466 18.52 30.0147 18.52V17.52ZM28.5096 17.9262C28.0443 18.188 27.6745 18.5597 27.4034 19.0305L28.27 19.5295C28.4549 19.2083 28.6972 18.968 28.9999 18.7978L28.5096 17.9262ZM27.4009 19.0349C27.1402 19.4984 27.0127 20.0097 27.0127 20.558H28.0127C28.0127 20.1703 28.1013 19.8296 28.2725 19.5251L27.4009 19.0349ZM27.0127 20.558V20.9H28.0127V20.558H27.0127ZM27.5127 21.4H30.0147V20.4H27.5127V21.4ZM29.5147 20.9V21.404H30.5147V20.9H29.5147ZM30.0147 20.904H27.5127V21.904H30.0147V20.904ZM27.0127 21.404V29H28.0127V21.404H27.0127ZM27.5127 28.5H26.9367V29.5H27.5127V28.5ZM27.4367 29V20.558H26.4367V29H27.4367ZM27.4367 20.558C27.4367 20.0756 27.5486 19.653 27.7654 19.2785L26.9 18.7775C26.5888 19.315 26.4367 19.9124 26.4367 20.558H27.4367ZM27.7634 19.282C27.9953 18.8888 28.3038 18.5858 28.6944 18.3655L28.2031 17.4945C27.6576 17.8022 27.2222 18.2312 26.9021 18.774L27.7634 19.282ZM28.698 18.3635C29.1007 18.1319 29.5365 18.016 30.0147 18.016V17.016C29.365 17.016 28.7568 17.1761 28.1995 17.4965L28.698 18.3635ZM29.5147 17.516V18.02H30.5147V17.516H29.5147ZM33.2162 28.622L32.9648 29.0542L32.9648 29.0542L33.2162 28.622ZM31.6502 27.074L31.218 27.3255L31.2201 27.3289L31.6502 27.074ZM31.6502 22.844L32.0804 23.0989L32.0824 23.0954L31.6502 22.844ZM33.2162 21.278L32.9648 20.8458L32.9648 20.8458L33.2162 21.278ZM37.5722 21.332L37.3139 21.7601L37.3193 21.7633L37.5722 21.332ZM39.0302 22.934L38.5689 23.1269L39.5302 22.934H39.0302ZM39.0302 20.9V20.4H38.5302V20.9H39.0302ZM39.6062 20.9H40.1062V20.4H39.6062V20.9ZM39.6062 29V29.5H40.1062V29H39.6062ZM39.0302 29H38.5302V29.5H39.0302V29ZM39.0302 26.984H39.5302L38.5798 26.7669L39.0302 26.984ZM37.5182 28.604L37.7721 29.0348L37.7743 29.0334L37.5182 28.604ZM37.2302 28.19L37.4861 28.6196L37.4928 28.6155L37.2302 28.19ZM38.5622 26.822L38.1303 26.5701L38.1287 26.5729L38.5622 26.822ZM38.5622 23.096L38.1303 23.3479L38.1303 23.3479L38.5622 23.096ZM37.2122 21.728L36.9496 22.1536L36.9563 22.1576L37.2122 21.728ZM33.5222 21.728L33.2636 21.3L33.2596 21.3025L33.5222 21.728ZM32.1542 23.114L31.7262 22.8554L31.7223 22.8621L32.1542 23.114ZM32.1542 26.822L31.7222 27.074L31.7287 27.0846L32.1542 26.822ZM33.5402 28.19L33.2816 28.618L33.2883 28.6219L33.5402 28.19ZM35.3582 28.698C34.678 28.698 34.0508 28.5291 33.4676 28.1898L32.9648 29.0542C33.7016 29.4829 34.5024 29.698 35.3582 29.698V28.698ZM33.4676 28.1898C32.8803 27.8481 32.4203 27.3927 32.0803 26.8191L31.2201 27.3289C31.6482 28.0513 32.2321 28.6279 32.9648 29.0542L33.4676 28.1898ZM32.0824 26.8226C31.7423 26.2381 31.5742 25.6167 31.5742 24.95H30.5742C30.5742 25.7953 30.7901 26.5899 31.218 27.3254L32.0824 26.8226ZM31.5742 24.95C31.5742 24.2833 31.7423 23.6694 32.0803 23.0989L31.2201 22.5891C30.7902 23.3146 30.5742 24.1047 30.5742 24.95H31.5742ZM32.0824 23.0954C32.4228 22.5103 32.8825 22.0506 33.4677 21.7102L32.9648 20.8458C32.2299 21.2734 31.6456 21.8577 31.218 22.5926L32.0824 23.0954ZM33.4676 21.7102C34.0508 21.3709 34.678 21.202 35.3582 21.202V20.202C34.5024 20.202 33.7016 20.4171 32.9648 20.8458L33.4676 21.7102ZM35.3582 21.202C36.0432 21.202 36.6924 21.3851 37.3139 21.7601L37.8305 20.9039C37.06 20.4389 36.2332 20.202 35.3582 20.202V21.202ZM37.3193 21.7633C37.9344 22.1239 38.34 22.5795 38.5689 23.1269L39.4915 22.7411C39.1684 21.9685 38.602 21.3561 37.8251 20.9007L37.3193 21.7633ZM39.5302 22.934V20.9H38.5302V22.934H39.5302ZM39.0302 21.4H39.6062V20.4H39.0302V21.4ZM39.1062 20.9V29H40.1062V20.9H39.1062ZM39.6062 28.5H39.0302V29.5H39.6062V28.5ZM39.5302 29V26.984H38.5302V29H39.5302ZM38.5798 26.7669C38.3013 27.3445 37.8679 27.8132 37.2621 28.1746L37.7743 29.0334C38.5365 28.5788 39.1111 27.9675 39.4806 27.2011L38.5798 26.7669ZM37.2644 28.1732C36.668 28.5246 36.0355 28.698 35.3582 28.698V29.698C36.2169 29.698 37.0244 29.4754 37.772 29.0348L37.2644 28.1732ZM35.3942 29.194C36.1438 29.194 36.8443 29.0019 37.4861 28.6196L36.9743 27.7604C36.4881 28.0501 35.9646 28.194 35.3942 28.194V29.194ZM37.4928 28.6155C38.1262 28.2247 38.6295 27.7086 38.9958 27.0711L38.1287 26.5729C37.8469 27.0634 37.4623 27.4593 36.9676 27.7645L37.4928 28.6155ZM38.9941 27.0739C39.3751 26.4208 39.5662 25.7098 39.5662 24.95H38.5662C38.5662 25.5342 38.4213 26.0712 38.1303 26.5701L38.9941 27.0739ZM39.5662 24.95C39.5662 24.2005 39.3742 23.4957 38.9941 22.8441L38.1303 23.3479C38.4222 23.8483 38.5662 24.3795 38.5662 24.95H39.5662ZM38.9941 22.8441C38.6161 22.1961 38.1061 21.6785 37.4681 21.2984L36.9563 22.1576C37.4464 22.4495 37.8363 22.8439 38.1303 23.3479L38.9941 22.8441ZM37.4748 21.3025C36.8322 20.906 36.1293 20.706 35.3762 20.706V21.706C35.9431 21.706 36.4642 21.854 36.9496 22.1535L37.4748 21.3025ZM35.3762 20.706C34.6232 20.706 33.916 20.9059 33.2636 21.3L33.7808 22.156C34.2804 21.8541 34.8092 21.706 35.3762 21.706V20.706ZM33.2596 21.3025C32.627 21.6929 32.1147 22.2125 31.7262 22.8554L32.5822 23.3726C32.8897 22.8635 33.2895 22.4591 33.7848 22.1535L33.2596 21.3025ZM31.7223 22.8621C31.3422 23.5137 31.1502 24.2185 31.1502 24.968H32.1502C32.1502 24.3975 32.2942 23.8663 32.5861 23.3659L31.7223 22.8621ZM31.1502 24.968C31.1502 25.7175 31.3422 26.4223 31.7223 27.0739L32.5861 26.5701C32.2942 26.0697 32.1502 25.5385 32.1502 24.968H31.1502ZM31.7287 27.0846C32.1191 27.7172 32.6387 28.2295 33.2816 28.618L33.7988 27.762C33.2897 27.4545 32.8853 27.0548 32.5797 26.5594L31.7287 27.0846ZM33.2883 28.6219C33.9399 29.002 34.6447 29.194 35.3942 29.194V28.194C34.8237 28.194 34.2925 28.05 33.7921 27.7581L33.2883 28.6219ZM49.3661 26.984H49.8661L48.9158 26.7669L49.3661 26.984ZM47.8541 28.604L48.108 29.0348L48.1103 29.0334L47.8541 28.604ZM43.5521 28.622L43.3007 29.0542L43.3007 29.0542L43.5521 28.622ZM41.9861 27.074L41.554 27.3255L41.556 27.3289L41.9861 27.074ZM41.9861 22.844L42.4163 23.0989L42.4183 23.0954L41.9861 22.844ZM43.5521 21.278L43.3007 20.8458L43.3007 20.8458L43.5521 21.278ZM47.9081 21.332L47.6498 21.7601L47.6553 21.7633L47.9081 21.332ZM49.3661 22.934L48.9049 23.1269L49.8661 22.934H49.3661ZM49.3661 20.9V20.4H48.8661V20.9H49.3661ZM49.9421 20.9H50.4421V20.4H49.9421V20.9ZM49.9421 32.6V33.1H50.4421V32.6H49.9421ZM49.3661 32.6H48.8661V33.1H49.3661V32.6ZM47.5661 28.19L47.8221 28.6196L47.8287 28.6155L47.5661 28.19ZM48.8981 26.822L48.4662 26.5701L48.4646 26.5729L48.8981 26.822ZM48.8981 23.096L48.4663 23.3479L48.4663 23.3479L48.8981 23.096ZM47.5481 21.728L47.2856 22.1536L47.2922 22.1576L47.5481 21.728ZM43.8581 21.728L43.5996 21.3L43.5956 21.3025L43.8581 21.728ZM42.4901 23.114L42.0621 22.8554L42.0583 22.8621L42.4901 23.114ZM42.4901 26.822L42.0581 27.074L42.0646 27.0846L42.4901 26.822ZM43.8761 28.19L43.6176 28.618L43.6242 28.6219L43.8761 28.19ZM48.9158 26.7669C48.6372 27.3445 48.2038 27.8132 47.598 28.1746L48.1103 29.0334C48.8725 28.5788 49.4471 27.9675 49.8165 27.2011L48.9158 26.7669ZM47.6003 28.1732C47.0039 28.5246 46.3714 28.698 45.6941 28.698V29.698C46.5529 29.698 47.3603 29.4754 48.108 29.0348L47.6003 28.1732ZM45.6941 28.698C45.0139 28.698 44.3868 28.5291 43.8036 28.1898L43.3007 29.0542C44.0375 29.4829 44.8383 29.698 45.6941 29.698V28.698ZM43.8036 28.1898C43.2162 27.8481 42.7562 27.3927 42.4163 26.8191L41.556 27.3289C41.9841 28.0513 42.568 28.6279 43.3007 29.0542L43.8036 28.1898ZM42.4183 26.8226C42.0783 26.2381 41.9101 25.6167 41.9101 24.95H40.9101C40.9101 25.7953 41.126 26.5899 41.554 27.3254L42.4183 26.8226ZM41.9101 24.95C41.9101 24.2833 42.0782 23.6694 42.4163 23.0989L41.556 22.5891C41.1261 23.3146 40.9101 24.1047 40.9101 24.95H41.9101ZM42.4183 23.0954C42.7587 22.5103 43.2185 22.0506 43.8036 21.7102L43.3007 20.8458C42.5658 21.2734 41.9815 21.8577 41.554 22.5926L42.4183 23.0954ZM43.8036 21.7102C44.3868 21.3709 45.0139 21.202 45.6941 21.202V20.202C44.8383 20.202 44.0375 20.4171 43.3007 20.8458L43.8036 21.7102ZM45.6941 21.202C46.3792 21.202 47.0283 21.3851 47.6498 21.7601L48.1665 20.9039C47.396 20.4389 46.5691 20.202 45.6941 20.202V21.202ZM47.6553 21.7633C48.2703 22.1239 48.6759 22.5795 48.9049 23.1269L49.8274 22.7411C49.5044 21.9685 48.938 21.3561 48.161 20.9007L47.6553 21.7633ZM49.8661 22.934V20.9H48.8661V22.934H49.8661ZM49.3661 21.4H49.9421V20.4H49.3661V21.4ZM49.4421 20.9V32.6H50.4421V20.9H49.4421ZM49.9421 32.1H49.3661V33.1H49.9421V32.1ZM49.8661 32.6V26.984H48.8661V32.6H49.8661ZM45.7301 29.194C46.4797 29.194 47.1802 29.0019 47.822 28.6196L47.3102 27.7604C46.8241 28.0501 46.3006 28.194 45.7301 28.194V29.194ZM47.8287 28.6155C48.4621 28.2247 48.9655 27.7086 49.3317 27.0711L48.4646 26.5729C48.1828 27.0634 47.7982 27.4593 47.3036 27.7645L47.8287 28.6155ZM49.33 27.0739C49.711 26.4208 49.9021 25.7098 49.9021 24.95H48.9021C48.9021 25.5342 48.7573 26.0712 48.4663 26.5701L49.33 27.0739ZM49.9021 24.95C49.9021 24.2005 49.7102 23.4957 49.33 22.8441L48.4663 23.3479C48.7581 23.8483 48.9021 24.3795 48.9021 24.95H49.9021ZM49.33 22.8441C48.9521 22.1961 48.442 21.6785 47.804 21.2984L47.2922 22.1576C47.7823 22.4495 48.1722 22.8439 48.4663 23.3479L49.33 22.8441ZM47.8107 21.3025C47.1681 20.906 46.4653 20.706 45.7121 20.706V21.706C46.279 21.706 46.8002 21.854 47.2856 22.1535L47.8107 21.3025ZM45.7121 20.706C44.9591 20.706 44.252 20.9059 43.5996 21.3L44.1167 22.156C44.6163 21.8541 45.1451 21.706 45.7121 21.706V20.706ZM43.5956 21.3025C42.9629 21.6929 42.4506 22.2125 42.0622 22.8554L42.9181 23.3726C43.2257 22.8635 43.6254 22.4591 44.1207 22.1535L43.5956 21.3025ZM42.0583 22.8621C41.6781 23.5137 41.4861 24.2185 41.4861 24.968H42.4861C42.4861 24.3975 42.6302 23.8663 42.922 23.3659L42.0583 22.8621ZM41.4861 24.968C41.4861 25.7175 41.6781 26.4223 42.0583 27.0739L42.922 26.5701C42.6302 26.0697 42.4861 25.5385 42.4861 24.968H41.4861ZM42.0646 27.0846C42.455 27.7172 42.9747 28.2295 43.6176 28.618L44.1347 27.762C43.6256 27.4545 43.2213 27.0548 42.9157 26.5594L42.0646 27.0846ZM43.6242 28.6219C44.2758 29.002 44.9807 29.194 45.7301 29.194V28.194C45.1596 28.194 44.6284 28.05 44.1281 27.7581L43.6242 28.6219ZM53.1321 28.262L52.7751 28.6121L52.7785 28.6156L53.1321 28.262ZM52.2141 20.9V20.4H51.7141V20.9H52.2141ZM52.7901 20.9H53.2901V20.4H52.7901V20.9ZM53.5641 27.902L53.2025 28.2475L53.2105 28.2556L53.5641 27.902ZM57.3621 28.316L57.5945 28.7588L57.603 28.7541L57.3621 28.316ZM58.9101 20.9V20.4H58.4101V20.9H58.9101ZM59.4861 20.9H59.9861V20.4H59.4861V20.9ZM59.4861 29V29.5H59.9861V29H59.4861ZM58.9101 29H58.4101V29.5H58.9101V29ZM58.9101 27.488H59.4101L58.4715 27.2478L58.9101 27.488ZM57.6681 28.73L57.9141 29.1653L57.9212 29.1612L57.6681 28.73ZM55.7781 28.698C54.7303 28.698 53.9907 28.4135 53.4856 27.9084L52.7785 28.6156C53.5215 29.3585 54.5459 29.698 55.7781 29.698V28.698ZM53.489 27.9119C52.9941 27.4072 52.7141 26.6664 52.7141 25.616H51.7141C51.7141 26.8456 52.0461 27.8688 52.7751 28.6121L53.489 27.9119ZM52.7141 25.616V20.9H51.7141V25.616H52.7141ZM52.2141 21.4H52.7901V20.4H52.2141V21.4ZM52.2901 20.9V25.616H53.2901V20.9H52.2901ZM52.2901 25.616C52.2901 26.6866 52.5723 27.5879 53.2026 28.2474L53.9256 27.5566C53.5238 27.1361 53.2901 26.5134 53.2901 25.616H52.2901ZM53.2105 28.2556C53.8559 28.9009 54.735 29.194 55.7781 29.194V28.194C54.9251 28.194 54.3283 27.9591 53.9176 27.5484L53.2105 28.2556ZM55.7781 29.194C56.4298 29.194 57.0383 29.0507 57.5945 28.7587L57.1297 27.8733C56.7258 28.0853 56.2783 28.194 55.7781 28.194V29.194ZM57.603 28.7541C58.161 28.4472 58.6048 28.0179 58.9268 27.472L58.0654 26.964C57.8354 27.3541 57.5232 27.6568 57.1211 27.8779L57.603 28.7541ZM58.9268 27.472C59.2528 26.9192 59.4101 26.2958 59.4101 25.616H58.4101C58.4101 26.1362 58.2914 26.5808 58.0654 26.964L58.9268 27.472ZM59.4101 25.616V20.9H58.4101V25.616H59.4101ZM58.9101 21.4H59.4861V20.4H58.9101V21.4ZM58.9861 20.9V29H59.9861V20.9H58.9861ZM59.4861 28.5H58.9101V29.5H59.4861V28.5ZM59.4101 29V27.488H58.4101V29H59.4101ZM58.4715 27.2478C58.2438 27.6638 57.8981 28.0152 57.415 28.2988L57.9212 29.1612C58.542 28.7968 59.0244 28.3202 59.3486 27.7282L58.4715 27.2478ZM57.422 28.2947C56.9536 28.5595 56.4101 28.698 55.7781 28.698V29.698C56.562 29.698 57.2786 29.5245 57.9141 29.1653L57.422 28.2947ZM67.483 28.226L67.2339 27.7924L67.2339 27.7924L67.483 28.226ZM68.887 26.894H69.387V25.2278L68.4696 26.6187L68.887 26.894ZM68.887 27.812L69.2582 28.147L69.387 28.0043V27.812H68.887ZM67.429 28.892L67.6184 29.3549L67.6272 29.351L67.429 28.892ZM63.523 28.622L63.2623 29.0487L63.2658 29.0507L63.523 28.622ZM61.957 27.038L61.5248 27.2895L61.5283 27.2952L61.957 27.038ZM61.957 22.772L62.385 23.0304L62.3871 23.0269L61.957 22.772ZM63.523 21.26L63.2869 20.8192L63.2836 20.8211L63.523 21.26ZM68.941 22.196L69.2923 22.5518L69.6302 22.2182L69.3145 21.8635L68.941 22.196ZM63.289 27.776L62.9377 27.4202L62.542 27.8109L62.9724 28.163L63.289 27.776ZM64.441 28.496L64.2476 28.9573L64.2605 28.9623L64.441 28.496ZM62.947 27.434L62.5813 27.7749L62.9332 28.1524L63.2993 27.7888L62.947 27.434ZM68.221 22.196L68.5733 22.5508L68.953 22.1737L68.5511 21.8204L68.221 22.196ZM67.069 21.458L66.8756 21.9193L66.8885 21.9243L67.069 21.458ZM63.775 21.71L64.017 22.1475L64.0201 22.1458L63.775 21.71ZM65.701 29.212C66.4162 29.212 67.0956 29.0252 67.7321 28.6596L67.2339 27.7924C66.7424 28.0748 66.2338 28.212 65.701 28.212V29.212ZM67.7321 28.6596C68.3664 28.2951 68.8911 27.7959 69.3044 27.1693L68.4696 26.6187C68.1389 27.1201 67.7276 27.5089 67.2339 27.7924L67.7321 28.6596ZM68.387 26.894V27.812H69.387V26.894H68.387ZM68.5158 27.477C68.1126 27.9238 67.6836 28.2374 67.2308 28.433L67.6272 29.351C68.2304 29.0906 68.7734 28.6842 69.2582 28.147L68.5158 27.477ZM67.2397 28.4292C66.7815 28.6167 66.2474 28.716 65.629 28.716V29.716C66.3546 29.716 67.0205 29.5993 67.6183 29.3548L67.2397 28.4292ZM65.629 28.716C64.9788 28.716 64.3654 28.5443 63.7802 28.1933L63.2658 29.0507C64.0006 29.4917 64.7912 29.716 65.629 29.716V28.716ZM63.7837 28.1954C63.2055 27.842 62.7408 27.3725 62.3857 26.7808L61.5283 27.2952C61.9652 28.0235 62.5445 28.61 63.2623 29.0486L63.7837 28.1954ZM62.3892 26.7866C62.0484 26.2008 61.881 25.5853 61.881 24.932H60.881C60.881 25.7667 61.0976 26.5552 61.5248 27.2894L62.3892 26.7866ZM61.881 24.932C61.881 24.2113 62.052 23.5821 62.385 23.0304L61.529 22.5136C61.094 23.2339 60.881 24.0447 60.881 24.932H61.881ZM62.3871 23.0269C62.7254 22.4561 63.1816 22.0158 63.7624 21.6989L63.2836 20.8211C62.5444 21.2242 61.9566 21.7919 61.5269 22.5171L62.3871 23.0269ZM63.7591 21.7007C64.3534 21.3824 65.0154 21.22 65.755 21.22V20.22C64.8626 20.22 64.0366 20.4176 63.2869 20.8193L63.7591 21.7007ZM65.755 21.22C66.8516 21.22 67.7804 21.6443 68.5675 22.5285L69.3145 21.8635C68.3496 20.7797 67.1544 20.22 65.755 20.22V21.22ZM68.5897 21.8402L62.9377 27.4202L63.6403 28.1318L69.2923 22.5518L68.5897 21.8402ZM62.9724 28.163C63.3962 28.5097 63.8211 28.7782 64.2476 28.9571L64.6344 28.0349C64.3169 27.9018 63.9738 27.6903 63.6056 27.389L62.9724 28.163ZM64.2605 28.9623C64.6991 29.1321 65.1818 29.212 65.701 29.212V28.212C65.2842 28.212 64.9269 28.1479 64.6215 28.0297L64.2605 28.9623ZM61.457 24.878C61.457 25.9965 61.8322 26.9714 62.5813 27.7749L63.3127 27.0931C62.7418 26.4806 62.457 25.7515 62.457 24.878H61.457ZM63.2993 27.7888L68.5733 22.5508L67.8687 21.8412L62.5947 27.0792L63.2993 27.7888ZM68.5511 21.8204C68.1243 21.4454 67.6908 21.1625 67.2495 20.9917L66.8885 21.9243C67.1912 22.0415 67.5257 22.2506 67.8909 22.5716L68.5511 21.8204ZM67.2624 20.9969C66.8146 20.8091 66.3016 20.724 65.737 20.724V21.724C66.2044 21.724 66.5794 21.7949 66.8756 21.9191L67.2624 20.9969ZM65.737 20.724C64.9286 20.724 64.1885 20.9037 63.5299 21.2742L64.0201 22.1458C64.5135 21.8683 65.0814 21.724 65.737 21.724V20.724ZM63.533 21.2725C62.8911 21.6276 62.3815 22.123 62.0118 22.7529L62.8742 23.2591C63.1525 22.785 63.5309 22.4164 64.017 22.1475L63.533 21.2725ZM62.0118 22.7529C61.6389 23.3883 61.457 24.101 61.457 24.878H62.457C62.457 24.263 62.5991 23.7277 62.8742 23.2591L62.0118 22.7529Z" fill="url(#paint1_linear)"/>
<path d="M30.72 6.68C30.56 6.744 30.4213 6.74933 30.304 6.696C30.1867 6.64267 30.1013 6.57333 30.048 6.488C29.9733 6.38133 29.952 6.26933 29.984 6.152C30.016 6.03467 30.1067 5.93333 30.256 5.848C30.5013 5.70933 30.8107 5.59733 31.184 5.512C31.5573 5.416 31.9573 5.38933 32.384 5.432C32.8107 5.47467 33.2 5.592 33.552 5.784C33.9147 5.96533 34.2187 6.2 34.464 6.488C34.72 6.776 34.912 7.10667 35.04 7.48C35.1787 7.84267 35.2427 8.22667 35.232 8.632C35.2107 9.05867 35.1253 9.48533 34.976 9.912C34.8373 10.3387 34.64 10.7387 34.384 11.112C34.1387 11.4853 33.84 11.8267 33.488 12.136C33.1467 12.4347 32.768 12.6693 32.352 12.84C32.064 12.9147 31.8453 12.9253 31.696 12.872C31.5467 12.8187 31.4453 12.7547 31.392 12.68C31.3707 12.6267 31.36 12.5573 31.36 12.472C31.3707 12.376 31.4293 12.28 31.536 12.184C31.408 11.1493 31.328 10.152 31.296 9.192C31.2747 8.22133 31.264 7.336 31.264 6.536C31.0827 6.568 30.9013 6.616 30.72 6.68ZM32.464 6.472C32.4 6.46133 32.3307 6.456 32.256 6.456C32.192 6.44533 32.128 6.44 32.064 6.44C32.128 6.52533 32.1813 6.632 32.224 6.76C32.2667 6.87733 32.288 6.99467 32.288 7.112C32.288 7.76267 32.2933 8.46133 32.304 9.208C32.3253 9.95467 32.3787 10.76 32.464 11.624C32.9333 11.2827 33.3333 10.856 33.664 10.344C34.0053 9.82133 34.1867 9.272 34.208 8.696C34.2187 8.16267 34.0853 7.69333 33.808 7.288C33.5307 6.872 33.0827 6.6 32.464 6.472ZM39.7929 10.524C39.8249 10.604 39.7929 10.684 39.6969 10.764C39.6009 10.836 39.4489 10.884 39.2409 10.908C38.8809 10.956 38.5129 11.008 38.1369 11.064C37.7609 11.112 37.3769 11.164 36.9849 11.22C36.9689 11.628 36.9689 12.036 36.9849 12.444C37.1689 12.444 37.3889 12.428 37.6449 12.396C37.9089 12.356 38.1769 12.308 38.4489 12.252C38.7209 12.196 38.9809 12.14 39.2289 12.084C39.4849 12.02 39.7009 11.968 39.8769 11.928C39.9649 11.904 40.0569 11.888 40.1529 11.88C40.2489 11.864 40.3329 11.864 40.4049 11.88C40.4849 11.888 40.5489 11.916 40.5969 11.964C40.6449 12.012 40.6689 12.08 40.6689 12.168C40.6689 12.192 40.6409 12.228 40.5849 12.276C40.5289 12.324 40.4569 12.376 40.3689 12.432C40.2889 12.48 40.2009 12.528 40.1049 12.576C40.0169 12.616 39.9369 12.648 39.8649 12.672C39.3689 12.832 38.8809 12.972 38.4009 13.092C37.9209 13.204 37.4529 13.264 36.9969 13.272C36.7329 13.28 36.5329 13.212 36.3969 13.068C36.2609 12.916 36.1889 12.7 36.1809 12.42C36.1649 12.028 36.1649 11.632 36.1809 11.232C36.0449 11.152 35.9769 11.04 35.9769 10.896C35.9929 10.744 36.0649 10.64 36.1929 10.584C36.2089 10.352 36.2209 10.12 36.2289 9.888C36.2369 9.648 36.2489 9.412 36.2649 9.18C36.1769 9.164 36.0969 9.12 36.0249 9.048C35.9609 8.976 35.9289 8.896 35.9289 8.808C35.9289 8.736 35.9449 8.672 35.9769 8.616C36.0089 8.552 36.0689 8.504 36.1569 8.472C36.3009 8.44 36.4769 8.404 36.6849 8.364C36.8929 8.324 37.1049 8.288 37.3209 8.256C37.5449 8.224 37.7569 8.196 37.9569 8.172C38.1649 8.148 38.3409 8.132 38.4849 8.124C38.6529 8.108 38.8129 8.124 38.9649 8.172C39.1249 8.22 39.2729 8.312 39.4089 8.448C39.4409 8.56 39.4169 8.644 39.3369 8.7C39.2649 8.756 39.1689 8.792 39.0489 8.808C38.9289 8.824 38.7849 8.844 38.6169 8.868C38.4489 8.884 38.2729 8.904 38.0889 8.928C37.9129 8.952 37.7329 8.976 37.5489 9C37.3729 9.016 37.2049 9.036 37.0449 9.06C37.0449 9.076 37.0449 9.096 37.0449 9.12C37.0529 9.136 37.0569 9.152 37.0569 9.168C37.0409 9.376 37.0289 9.584 37.0209 9.792C37.0129 10 37.0049 10.208 36.9969 10.416C37.3329 10.36 37.6769 10.312 38.0289 10.272C38.3809 10.224 38.6609 10.192 38.8689 10.176C39.0369 10.16 39.2009 10.18 39.3609 10.236C39.5209 10.292 39.6649 10.388 39.7929 10.524ZM44.3548 8.388C44.3228 8.428 44.2628 8.46 44.1748 8.484C44.0948 8.5 44.0108 8.476 43.9228 8.412C43.8588 8.364 43.7828 8.316 43.6948 8.268C43.6068 8.212 43.5108 8.16 43.4068 8.112C43.3028 8.064 43.1988 8.024 43.0948 7.992C42.9908 7.96 42.8908 7.944 42.7948 7.944C42.6748 7.944 42.5468 7.972 42.4108 8.028C42.2828 8.084 42.1708 8.164 42.0748 8.268C41.8908 8.468 41.8228 8.664 41.8708 8.856C41.9268 9.04 42.0668 9.212 42.2908 9.372C42.4348 9.476 42.5908 9.584 42.7588 9.696C42.9268 9.8 43.0908 9.904 43.2508 10.008C43.4188 10.112 43.5748 10.212 43.7188 10.308C43.8708 10.404 44.0028 10.488 44.1148 10.56C44.2588 10.656 44.3948 10.76 44.5228 10.872C44.6508 10.984 44.7628 11.112 44.8588 11.256C44.9548 11.392 45.0308 11.548 45.0868 11.724C45.1428 11.9 45.1708 12.1 45.1708 12.324C45.1148 12.764 44.9388 13.116 44.6428 13.38C44.3548 13.636 44.0188 13.8 43.6348 13.872C43.2988 13.936 42.9668 13.924 42.6388 13.836C42.3188 13.748 42.0468 13.58 41.8228 13.332C41.7668 13.268 41.7188 13.18 41.6788 13.068C41.6388 12.956 41.6348 12.876 41.6668 12.828C41.7148 12.756 41.7988 12.708 41.9188 12.684C42.0388 12.652 42.1308 12.656 42.1948 12.696C42.3788 12.864 42.5948 12.988 42.8428 13.068C43.0908 13.14 43.3508 13.144 43.6228 13.08C43.8308 13.032 43.9988 12.944 44.1268 12.816C44.2548 12.68 44.3348 12.528 44.3668 12.36C44.4068 12.184 44.3828 12.004 44.2948 11.82C44.2148 11.628 44.0668 11.456 43.8508 11.304C43.5228 11.056 43.1708 10.824 42.7948 10.608C42.4268 10.392 42.0508 10.144 41.6668 9.864C41.4828 9.704 41.3468 9.528 41.2588 9.336C41.1788 9.144 41.1388 8.956 41.1388 8.772C41.1388 8.58 41.1788 8.4 41.2588 8.232C41.3388 8.056 41.4508 7.9 41.5948 7.764C41.7388 7.62 41.9068 7.504 42.0988 7.416C42.2908 7.328 42.5028 7.276 42.7348 7.26C43.0548 7.244 43.3628 7.312 43.6588 7.464C43.9548 7.608 44.1948 7.788 44.3788 8.004C44.4188 8.052 44.4348 8.112 44.4268 8.184C44.4268 8.256 44.4028 8.324 44.3548 8.388ZM47.3837 12.48C47.3917 12.512 47.3957 12.56 47.3957 12.624C47.3957 12.68 47.3837 12.74 47.3597 12.804C47.3357 12.86 47.2997 12.912 47.2517 12.96C47.2117 13 47.1517 13.02 47.0717 13.02C46.8957 12.908 46.7477 12.76 46.6277 12.576C46.5637 12.336 46.5037 12.06 46.4477 11.748C46.3997 11.436 46.3597 11.112 46.3277 10.776C46.2957 10.432 46.2717 10.084 46.2557 9.732C46.2477 9.38 46.2477 9.04 46.2557 8.712C46.2557 8.656 46.2597 8.584 46.2677 8.496C46.2837 8.408 46.3077 8.324 46.3397 8.244C46.3717 8.156 46.4117 8.084 46.4597 8.028C46.5077 7.964 46.5757 7.932 46.6637 7.932C46.7677 7.932 46.8517 7.964 46.9157 8.028C46.9797 8.092 47.0117 8.196 47.0117 8.34C47.0037 8.66 47.0037 9.004 47.0117 9.372C47.0277 9.732 47.0517 10.096 47.0837 10.464C47.1157 10.832 47.1557 11.192 47.2037 11.544C47.2597 11.888 47.3197 12.2 47.3837 12.48ZM50.5633 10.332C50.5233 10.332 50.4713 10.328 50.4073 10.32C50.3513 10.304 50.2953 10.284 50.2393 10.26C50.1913 10.228 50.1473 10.192 50.1073 10.152C50.0673 10.104 50.0473 10.056 50.0473 10.008C50.0473 9.944 50.0833 9.868 50.1553 9.78C50.2353 9.684 50.3633 9.612 50.5393 9.564C50.7793 9.508 51.0313 9.476 51.2953 9.468C51.5593 9.452 51.8233 9.452 52.0873 9.468C52.3513 9.476 52.6113 9.492 52.8673 9.516C53.1233 9.532 53.3633 9.544 53.5873 9.552C53.7153 9.552 53.7993 9.576 53.8393 9.624C53.8793 9.672 53.8993 9.728 53.8993 9.792C53.8993 9.936 53.8353 10.048 53.7073 10.128C53.5793 10.208 53.4513 10.244 53.3233 10.236C53.1873 10.228 53.0433 10.224 52.8913 10.224C52.7473 10.224 52.5953 10.224 52.4353 10.224C52.4353 10.448 52.4433 10.7 52.4593 10.98C52.4833 11.252 52.5073 11.528 52.5313 11.808C52.5553 12.088 52.5793 12.356 52.6033 12.612C52.6353 12.868 52.6633 13.084 52.6873 13.26C52.7033 13.324 52.6873 13.384 52.6393 13.44C52.5993 13.488 52.5353 13.512 52.4473 13.512C52.2793 13.512 52.1553 13.408 52.0753 13.2C51.9233 12.808 51.8153 12.36 51.7513 11.856C51.3193 12.12 50.8953 12.284 50.4793 12.348C50.0633 12.412 49.6873 12.4 49.3513 12.312C49.0233 12.216 48.7553 12.056 48.5473 11.832C48.3473 11.6 48.2473 11.32 48.2473 10.992C48.2473 10.68 48.3033 10.344 48.4153 9.984C48.5273 9.624 48.6873 9.276 48.8953 8.94C49.1033 8.604 49.3473 8.3 49.6273 8.028C49.9153 7.748 50.2353 7.536 50.5873 7.392C50.7073 7.36 50.8193 7.356 50.9233 7.38C51.0353 7.396 51.1353 7.436 51.2233 7.5C51.3193 7.556 51.4033 7.628 51.4753 7.716C51.5553 7.796 51.6233 7.876 51.6793 7.956C51.7193 8.012 51.7433 8.072 51.7513 8.136C51.7593 8.2 51.7353 8.26 51.6793 8.316C51.5593 8.404 51.4553 8.396 51.3673 8.292C51.2313 8.124 51.1153 8.024 51.0193 7.992C50.9313 7.952 50.8073 7.984 50.6473 8.088C50.4873 8.2 50.3113 8.372 50.1193 8.604C49.9273 8.828 49.7473 9.08 49.5793 9.36C49.4193 9.632 49.2913 9.916 49.1953 10.212C49.0993 10.5 49.0673 10.768 49.0993 11.016C49.1233 11.232 49.2433 11.388 49.4593 11.484C49.6753 11.572 49.9193 11.612 50.1913 11.604C50.4713 11.596 50.7473 11.544 51.0193 11.448C51.2993 11.352 51.5153 11.224 51.6673 11.064C51.6593 10.928 51.6513 10.792 51.6433 10.656C51.6353 10.512 51.6313 10.372 51.6313 10.236C51.4553 10.252 51.2793 10.268 51.1033 10.284C50.9273 10.292 50.7473 10.308 50.5633 10.332ZM59.1195 8.592C59.0635 9.272 58.9955 9.968 58.9155 10.68C58.8435 11.384 58.7435 12.048 58.6155 12.672C58.5835 12.824 58.5395 12.932 58.4835 12.996C58.4275 13.06 58.3475 13.104 58.2435 13.128C58.1555 13.144 58.0315 13.116 57.8715 13.044C57.7195 12.972 57.5915 12.868 57.4875 12.732C57.3515 12.548 57.2035 12.348 57.0435 12.132C56.8915 11.908 56.7235 11.684 56.5395 11.46C56.3635 11.228 56.1755 11 55.9755 10.776C55.7835 10.552 55.5795 10.344 55.3635 10.152C55.3395 10.68 55.3195 11.204 55.3035 11.724C55.2875 12.236 55.2875 12.752 55.3035 13.272C55.3035 13.344 55.2395 13.38 55.1115 13.38C54.9595 13.38 54.8355 13.304 54.7395 13.152C54.6435 12.992 54.5875 12.832 54.5715 12.672C54.5475 12.512 54.5355 12.284 54.5355 11.988C54.5355 11.684 54.5395 11.368 54.5475 11.04C54.5635 10.712 54.5795 10.396 54.5955 10.092C54.6115 9.788 54.6275 9.548 54.6435 9.372C54.6595 9.18 54.7035 9.04 54.7755 8.952C54.8555 8.864 54.9315 8.824 55.0035 8.832C55.1635 8.848 55.2675 8.896 55.3155 8.976C55.3715 9.048 55.4035 9.14 55.4115 9.252C55.6995 9.46 55.9635 9.684 56.2035 9.924C56.4515 10.164 56.6755 10.408 56.8755 10.656C57.0835 10.904 57.2715 11.152 57.4395 11.4C57.6155 11.64 57.7795 11.86 57.9315 12.06C58.0275 11.58 58.1035 11.044 58.1595 10.452C58.2235 9.86 58.2875 9.24 58.3515 8.592C58.3435 8.512 58.3915 8.436 58.4955 8.364C58.5995 8.284 58.6955 8.248 58.7835 8.256C59.0075 8.272 59.1195 8.384 59.1195 8.592ZM63.5468 10.524C63.5788 10.604 63.5468 10.684 63.4508 10.764C63.3548 10.836 63.2028 10.884 62.9948 10.908C62.6348 10.956 62.2668 11.008 61.8908 11.064C61.5148 11.112 61.1308 11.164 60.7388 11.22C60.7228 11.628 60.7228 12.036 60.7388 12.444C60.9228 12.444 61.1428 12.428 61.3988 12.396C61.6628 12.356 61.9308 12.308 62.2028 12.252C62.4748 12.196 62.7348 12.14 62.9828 12.084C63.2388 12.02 63.4548 11.968 63.6308 11.928C63.7188 11.904 63.8108 11.888 63.9068 11.88C64.0028 11.864 64.0868 11.864 64.1588 11.88C64.2388 11.888 64.3028 11.916 64.3508 11.964C64.3988 12.012 64.4228 12.08 64.4228 12.168C64.4228 12.192 64.3948 12.228 64.3388 12.276C64.2828 12.324 64.2108 12.376 64.1228 12.432C64.0428 12.48 63.9548 12.528 63.8588 12.576C63.7708 12.616 63.6908 12.648 63.6188 12.672C63.1228 12.832 62.6348 12.972 62.1548 13.092C61.6748 13.204 61.2068 13.264 60.7508 13.272C60.4868 13.28 60.2868 13.212 60.1508 13.068C60.0148 12.916 59.9428 12.7 59.9348 12.42C59.9188 12.028 59.9188 11.632 59.9348 11.232C59.7988 11.152 59.7308 11.04 59.7308 10.896C59.7468 10.744 59.8188 10.64 59.9468 10.584C59.9628 10.352 59.9748 10.12 59.9828 9.888C59.9908 9.648 60.0028 9.412 60.0188 9.18C59.9308 9.164 59.8508 9.12 59.7788 9.048C59.7148 8.976 59.6828 8.896 59.6828 8.808C59.6828 8.736 59.6988 8.672 59.7308 8.616C59.7628 8.552 59.8228 8.504 59.9108 8.472C60.0548 8.44 60.2308 8.404 60.4388 8.364C60.6468 8.324 60.8588 8.288 61.0748 8.256C61.2988 8.224 61.5108 8.196 61.7108 8.172C61.9188 8.148 62.0948 8.132 62.2388 8.124C62.4068 8.108 62.5668 8.124 62.7188 8.172C62.8788 8.22 63.0268 8.312 63.1628 8.448C63.1948 8.56 63.1708 8.644 63.0908 8.7C63.0188 8.756 62.9228 8.792 62.8028 8.808C62.6828 8.824 62.5388 8.844 62.3708 8.868C62.2028 8.884 62.0268 8.904 61.8428 8.928C61.6668 8.952 61.4868 8.976 61.3028 9C61.1268 9.016 60.9588 9.036 60.7988 9.06C60.7988 9.076 60.7988 9.096 60.7988 9.12C60.8068 9.136 60.8108 9.152 60.8108 9.168C60.7948 9.376 60.7828 9.584 60.7748 9.792C60.7668 10 60.7588 10.208 60.7508 10.416C61.0868 10.36 61.4308 10.312 61.7828 10.272C62.1348 10.224 62.4148 10.192 62.6228 10.176C62.7908 10.16 62.9548 10.18 63.1148 10.236C63.2748 10.292 63.4188 10.388 63.5468 10.524ZM65.8047 13.308C65.7807 13.012 65.7607 12.676 65.7447 12.3C65.7367 11.924 65.7327 11.54 65.7327 11.148C65.7327 10.748 65.7327 10.356 65.7327 9.972C65.7407 9.588 65.7527 9.24 65.7687 8.928C65.7687 8.848 65.8047 8.788 65.8767 8.748C65.9567 8.7 66.0207 8.68 66.0687 8.688C66.2127 8.704 66.3087 8.756 66.3567 8.844C66.4127 8.924 66.4487 9.04 66.4647 9.192C66.4567 9.448 66.4487 9.704 66.4407 9.96C66.4407 10.216 66.4447 10.472 66.4527 10.728C66.8127 10.664 67.1127 10.532 67.3527 10.332C67.6007 10.132 67.7767 9.904 67.8807 9.648C67.9207 9.552 67.9487 9.436 67.9647 9.3C67.9887 9.164 67.9927 9.028 67.9767 8.892C67.9607 8.748 67.9207 8.616 67.8567 8.496C67.8007 8.368 67.7127 8.268 67.5927 8.196C67.4167 8.092 67.2247 8.036 67.0167 8.028C66.8087 8.02 66.5927 8.052 66.3687 8.124C66.1527 8.188 65.9367 8.292 65.7207 8.436C65.5127 8.58 65.3167 8.752 65.1327 8.952C65.1567 9.072 65.1407 9.18 65.0847 9.276C65.0287 9.364 64.9487 9.428 64.8447 9.468C64.7807 9.484 64.7047 9.452 64.6167 9.372C64.5287 9.284 64.4847 9.196 64.4847 9.108C64.4847 8.788 64.5727 8.512 64.7487 8.28C64.9327 8.04 65.1607 7.84 65.4327 7.68C65.7047 7.52 65.9967 7.4 66.3087 7.32C66.6207 7.24 66.9087 7.2 67.1727 7.2C67.5647 7.2 67.8927 7.316 68.1567 7.548C68.4207 7.772 68.6007 8.056 68.6967 8.4C68.8647 9 68.8207 9.54 68.5647 10.02C68.3167 10.5 67.9087 10.916 67.3407 11.268C67.7567 11.524 68.1447 11.768 68.5047 12C68.8727 12.232 69.2407 12.484 69.6087 12.756C69.6567 12.804 69.7087 12.876 69.7647 12.972C69.8287 13.06 69.8207 13.196 69.7407 13.38C69.6927 13.492 69.6087 13.556 69.4887 13.572C69.3767 13.58 69.2647 13.544 69.1527 13.464C68.9767 13.32 68.7767 13.172 68.5527 13.02C68.3367 12.86 68.1087 12.704 67.8687 12.552C67.6287 12.392 67.3887 12.24 67.1487 12.096C66.9087 11.944 66.6807 11.804 66.4647 11.676C66.4727 11.996 66.4767 12.316 66.4767 12.636C66.4847 12.948 66.4967 13.256 66.5127 13.56C66.5127 13.672 66.4807 13.752 66.4167 13.8C66.3527 13.84 66.2727 13.86 66.1767 13.86C66.1287 13.852 66.0847 13.828 66.0447 13.788C66.0047 13.74 65.9647 13.688 65.9247 13.632C65.8927 13.568 65.8647 13.508 65.8407 13.452C65.8167 13.388 65.8047 13.34 65.8047 13.308Z" fill="black"/>
<ellipse rx="8.5" ry="0.5" transform="matrix(1 0 0 -1 49.5 16.5)" fill="url(#paint2_linear)"/>
<defs>
<linearGradient id="paint0_linear" x1="1" y1="20.8421" x2="73.3372" y2="23.6435" gradientUnits="userSpaceOnUse">
<stop stop-color="#EE0000"/>
<stop offset="1" stop-color="#F97700"/>
</linearGradient>
<linearGradient id="paint1_linear" x1="1.75" y1="21.375" x2="72.625" y2="22.5" gradientUnits="userSpaceOnUse">
<stop stop-color="#EF0C00"/>
<stop offset="1" stop-color="#F86500"/>
</linearGradient>
<linearGradient id="paint2_linear" x1="0.2125" y1="-6.68569e-06" x2="16.7897" y2="0.0903174" gradientUnits="userSpaceOnUse">
<stop/>
<stop offset="0.3125" stop-color="#820A03"/>
<stop offset="0.71875" stop-color="#8E3D00"/>
<stop offset="1"/>
</linearGradient>
</defs>
</svg>
