<svg width="78" height="27" viewBox="0 0 78 27" fill="none" xmlns="http://www.w3.org/2000/svg">
<path d="M8.892 17.444H3.654L2.754 20H0.612L5.094 7.472H7.47L11.952 20H9.792L8.892 17.444ZM8.316 15.77L6.282 9.956L4.23 15.77H8.316ZM13.2168 14.996C13.2168 14 13.4208 13.118 13.8288 12.35C14.2488 11.582 14.8128 10.988 15.5208 10.568C16.2408 10.136 17.0328 9.92 17.8968 9.92C18.6768 9.92 19.3548 10.076 19.9308 10.388C20.5188 10.688 20.9868 11.066 21.3348 11.522V10.082H23.4048V20H21.3348V18.524C20.9868 18.992 20.5128 19.382 19.9128 19.694C19.3128 20.006 18.6288 20.162 17.8608 20.162C17.0088 20.162 16.2288 19.946 15.5208 19.514C14.8128 19.07 14.2488 18.458 13.8288 17.678C13.4208 16.886 13.2168 15.992 13.2168 14.996ZM21.3348 15.032C21.3348 14.348 21.1908 13.754 20.9028 13.25C20.6268 12.746 20.2608 12.362 19.8048 12.098C19.3488 11.834 18.8568 11.702 18.3288 11.702C17.8008 11.702 17.3088 11.834 16.8528 12.098C16.3968 12.35 16.0248 12.728 15.7368 13.232C15.4608 13.724 15.3228 14.312 15.3228 14.996C15.3228 15.68 15.4608 16.28 15.7368 16.796C16.0248 17.312 16.3968 17.708 16.8528 17.984C17.3208 18.248 17.8128 18.38 18.3288 18.38C18.8568 18.38 19.3488 18.248 19.8048 17.984C20.2608 17.72 20.6268 17.336 20.9028 16.832C21.1908 16.316 21.3348 15.716 21.3348 15.032ZM30.258 11.756H28.422V20H26.352V11.756H25.182V10.082H26.352V9.38C26.352 8.24 26.652 7.412 27.252 6.896C27.864 6.368 28.818 6.104 30.114 6.104V7.814C29.49 7.814 29.052 7.934 28.8 8.174C28.548 8.402 28.422 8.804 28.422 9.38V10.082H30.258V11.756ZM31.3926 14.996C31.3926 14 31.5966 13.118 32.0046 12.35C32.4246 11.582 32.9886 10.988 33.6966 10.568C34.4166 10.136 35.2086 9.92 36.0726 9.92C36.8526 9.92 37.5306 10.076 38.1066 10.388C38.6946 10.688 39.1626 11.066 39.5106 11.522V10.082H41.5806V20H39.5106V18.524C39.1626 18.992 38.6886 19.382 38.0886 19.694C37.4886 20.006 36.8046 20.162 36.0366 20.162C35.1846 20.162 34.4046 19.946 33.6966 19.514C32.9886 19.07 32.4246 18.458 32.0046 17.678C31.5966 16.886 31.3926 15.992 31.3926 14.996ZM39.5106 15.032C39.5106 14.348 39.3666 13.754 39.0786 13.25C38.8026 12.746 38.4366 12.362 37.9806 12.098C37.5246 11.834 37.0326 11.702 36.5046 11.702C35.9766 11.702 35.4846 11.834 35.0286 12.098C34.5726 12.35 34.2006 12.728 33.9126 13.232C33.6366 13.724 33.4986 14.312 33.4986 14.996C33.4986 15.68 33.6366 16.28 33.9126 16.796C34.2006 17.312 34.5726 17.708 35.0286 17.984C35.4966 18.248 35.9886 18.38 36.5046 18.38C37.0326 18.38 37.5246 18.248 37.9806 17.984C38.4366 17.72 38.8026 17.336 39.0786 16.832C39.3666 16.316 39.5106 15.716 39.5106 15.032ZM43.5918 14.996C43.5918 14 43.7958 13.118 44.2038 12.35C44.6238 11.582 45.1878 10.988 45.8958 10.568C46.6158 10.136 47.4138 9.92 48.2898 9.92C49.0578 9.92 49.7358 10.076 50.3238 10.388C50.9238 10.7 51.3858 11.078 51.7098 11.522V10.082H53.7798V24.716H51.7098V18.56C51.3858 19.004 50.9178 19.382 50.3058 19.694C49.6938 20.006 48.9978 20.162 48.2178 20.162C47.3658 20.162 46.5858 19.946 45.8778 19.514C45.1818 19.07 44.6238 18.458 44.2038 17.678C43.7958 16.886 43.5918 15.992 43.5918 14.996ZM51.7098 15.032C51.7098 14.348 51.5658 13.754 51.2778 13.25C51.0018 12.746 50.6358 12.362 50.1798 12.098C49.7238 11.834 49.2318 11.702 48.7038 11.702C48.1758 11.702 47.6838 11.834 47.2278 12.098C46.7718 12.35 46.3998 12.728 46.1118 13.232C45.8358 13.724 45.6978 14.312 45.6978 14.996C45.6978 15.68 45.8358 16.28 46.1118 16.796C46.3998 17.312 46.7718 17.708 47.2278 17.984C47.6958 18.248 48.1878 18.38 48.7038 18.38C49.2318 18.38 49.7238 18.248 50.1798 17.984C50.6358 17.72 51.0018 17.336 51.2778 16.832C51.5658 16.316 51.7098 15.716 51.7098 15.032ZM65.457 10.082V20H63.405V18.83C63.081 19.238 62.655 19.562 62.127 19.802C61.611 20.03 61.059 20.144 60.471 20.144C59.691 20.144 58.989 19.982 58.365 19.658C57.753 19.334 57.267 18.854 56.907 18.218C56.559 17.582 56.385 16.814 56.385 15.914V10.082H58.419V15.608C58.419 16.496 58.641 17.18 59.085 17.66C59.529 18.128 60.135 18.362 60.903 18.362C61.671 18.362 62.277 18.128 62.721 17.66C63.177 17.18 63.405 16.496 63.405 15.608V10.082H65.457ZM77.2545 14.798C77.2545 15.17 77.2305 15.506 77.1825 15.806H69.6045C69.6645 16.598 69.9585 17.234 70.4865 17.714C71.0145 18.194 71.6625 18.434 72.4305 18.434C73.5345 18.434 74.3145 17.972 74.7705 17.048H76.9845C76.6845 17.96 76.1385 18.71 75.3465 19.298C74.5665 19.874 73.5945 20.162 72.4305 20.162C71.4825 20.162 70.6305 19.952 69.8745 19.532C69.1305 19.1 68.5425 18.5 68.1105 17.732C67.6905 16.952 67.4805 16.052 67.4805 15.032C67.4805 14.012 67.6845 13.118 68.0925 12.35C68.5125 11.57 69.0945 10.97 69.8385 10.55C70.5945 10.13 71.4585 9.92 72.4305 9.92C73.3665 9.92 74.2005 10.124 74.9325 10.532C75.6645 10.94 76.2345 11.516 76.6425 12.26C77.0505 12.992 77.2545 13.838 77.2545 14.798ZM75.1125 14.15C75.1005 13.394 74.8305 12.788 74.3025 12.332C73.7745 11.876 73.1205 11.648 72.3405 11.648C71.6325 11.648 71.0265 11.876 70.5225 12.332C70.0185 12.776 69.7185 13.382 69.6225 14.15H75.1125Z" fill="url(#paint0_linear)"/>
<defs>
<linearGradient id="paint0_linear" x1="0" y1="14" x2="78" y2="14" gradientUnits="userSpaceOnUse">
<stop stop-color="#EE0000"/>
<stop offset="1" stop-color="#F97700"/>
</linearGradient>
</defs>
</svg>
